# xmcd CD database file
#
# Track frame offsets:
#	150
#	25167
#	45787
#	63489
#
# Disc length: 1252 seconds
#
# Revision: 0
# Processed by: cddbd v1.5.1PL0 Copyright (c) Steve Scherf et al.
# Submitted via: CDex 1.51
#
DISCID=2604e204
DTITLE=n-tone - East side fragment
DYEAR=2004
DGENRE=Game
TTITLE0=無何有の郷 -fragment snow pain-
TTITLE1=恋色恋歌
TTITLE2=竹取飛翔 -静-
TTITLE3=幽玄の槭樹 -Away from Eastend-
EXTD=YEAR: 2004/8/14
EXTT0=
EXTT1=
EXTT2=
EXTT3=
PLAYORDER=
